<?xml version="1.0" standalone="no"?>
<!DOCTYPE svg PUBLIC "-//W3C//DTD SVG 20010904//EN"
 "http://www.w3.org/TR/2001/REC-SVG-20010904/DTD/svg10.dtd">
<svg version="1.0" xmlns="http://www.w3.org/2000/svg"
 width="640.000000pt" height="360.000000pt" viewBox="0 0 640.000000 360.000000"
 preserveAspectRatio="xMidYMid meet">

<g transform="translate(0.000000,360.000000) scale(0.100000,-0.100000)"
fill="#000000" stroke="none">
<path d="M0 3295 l0 -306 143 3 142 3 3 103 3 102 404 0 405 0 0 -178 c0 -98
3 -182 7 -185 3 -4 16 8 29 27 l23 33 248 7 c310 9 4109 3 4118 -6 4 -3 9 -34
12 -67 3 -35 11 -62 18 -65 10 -4 713 -10 802 -7 19 1 21 5 16 34 -3 23 0 37
11 46 22 19 23 141 1 141 -11 0 -15 11 -15 35 0 22 6 38 15 41 13 5 15 45 15
275 l0 269 -3200 0 -3200 0 0 -305z"/>
<path d="M1280 904 l0 -216 -297 3 c-164 2 -452 3 -640 2 l-343 -3 0 -345 0
-345 3200 0 3200 0 0 345 0 344 -237 5 c-131 3 -251 5 -268 6 -16 1 -530 -2
-1140 -6 -1020 -6 -1111 -5 -1124 10 -7 9 -20 16 -27 16 -11 0 -14 -52 -16
-282 l-3 -283 -405 0 -405 0 -3 267 -2 267 -315 -2 c-265 -1 -318 1 -330 14
-11 11 -16 56 -20 202 -3 103 -5 194 -5 202 0 13 -54 15 -410 15 l-410 0 0
-216z"/>
</g>
</svg>
